<svg xmlns="http://www.w3.org/2000/svg" viewBox="0 0 64 64" role="img" aria-label="삶잇다 favicon">
  <rect width="64" height="64" rx="14" fill="#f7f1e8"/>
  <circle cx="32" cy="32" r="22" fill="#ffffff"/>
  <path d="M25.1 33.4c-5.8-6-5.8-15.6 0-21.4 5.8-5.7 15.3-5.6 21 .2 5.7 5.7 5.6 15.2-.2 21L32 47.1l-6.8-6.8 6.8-6.9a5 5 0 0 0 0-7.1 5 5 0 0 0-7.1 0 5 5 0 0 0 0 7.1h.2Z" fill="#3f8f64"/>
  <path d="M38.9 30.6c5.8 6 5.8 15.6 0 21.4-5.8 5.7-15.3 5.6-21-.2-5.7-5.7-5.6-15.2.2-21L32 16.9l6.8 6.8-6.8 6.9a5 5 0 0 0 0 7.1 5 5 0 0 0 7.1 0 5 5 0 0 0 0-7.1h-.2Z" fill="#78b66f"/>
</svg>
