<svg xmlns="http://www.w3.org/2000/svg" viewBox="0 0 196 244" role="img" aria-labelledby="title desc">
  <title id="title">삶잇다협동조합 로고</title>
  <desc id="desc">세 사람이 둥글게 연결되고 가운데 하트가 있는 삶잇다협동조합 로고</desc>
  <rect width="196" height="244" fill="#ffffff"/>
  <circle cx="70" cy="57" r="9" fill="#78a843"/>
  <circle cx="98" cy="20" r="9" fill="#e0af3e"/>
  <circle cx="158" cy="57" r="9" fill="#6c94a4"/>
  <path d="M55 119a52 52 0 0 1 87-59" fill="none" stroke="#78a843" stroke-width="17" stroke-linecap="round"/>
  <path d="M139 57a52 52 0 0 1-84 63" fill="none" stroke="#6c94a4" stroke-width="17" stroke-linecap="round"/>
  <path d="M68 58a52 52 0 0 1 68-6" fill="none" stroke="#e0af3e" stroke-width="17" stroke-linecap="round"/>
  <path d="M98 124c-21-15-35-27-35-41 0-10 8-18 18-18 7 0 13 4 17 10 4-6 10-10 17-10 10 0 18 8 18 18 0 14-14 26-35 41z" fill="#b7c98f"/>
  <text x="98" y="172" text-anchor="middle" font-family="Pretendard, 'Noto Sans KR', Arial, sans-serif" font-size="34" font-weight="800" fill="#222222" letter-spacing="-1">삶 잇 다</text>
  <line x1="24" y1="197" x2="52" y2="197" stroke="#78a843" stroke-width="2"/>
  <line x1="144" y1="197" x2="172" y2="197" stroke="#6c94a4" stroke-width="2"/>
  <text x="98" y="202" text-anchor="middle" font-family="Pretendard, 'Noto Sans KR', Arial, sans-serif" font-size="16" font-weight="700" fill="#333333" letter-spacing="2">협동조합</text>
  <text x="98" y="229" text-anchor="middle" font-family="Pretendard, 'Noto Sans KR', Arial, sans-serif" font-size="11" font-weight="700" fill="#91b37b" letter-spacing="0">함께 잇는 힘, 더 나은 내일</text>
</svg>
